# Blender 3.6.5
# www.blender.org
mtllib Cristal2.mtl
o Cube
v 0.626508 0.258928 -0.847743
v 0.258928 0.258928 -1.000000
v 0.258928 0.626508 -0.847743
v 0.650063 0.650063 -0.648378
v 0.258928 0.847743 -0.626508
v 0.258928 1.000000 -0.258928
v 0.626508 0.847743 -0.258928
v 0.650063 0.648378 -0.650063
v 0.847743 0.258928 -0.626508
v 0.648378 0.650063 -0.650063
v 0.847743 0.626508 -0.258928
v 1.000000 0.258928 -0.258928
v 0.626508 -0.847743 -0.258928
v 0.258928 -1.000000 -0.258928
v 0.258928 -0.847743 -0.626508
v 0.650063 -0.648378 -0.650063
v 0.258928 -0.626508 -0.847743
v 0.258928 -0.258928 -1.000000
v 0.626508 -0.258928 -0.847743
v 0.650063 -0.650063 -0.648378
v 0.847743 -0.626508 -0.258928
v 0.648378 -0.650063 -0.650063
v 0.847743 -0.258928 -0.626508
v 1.000000 -0.258928 -0.258928
v 0.847743 0.258928 0.626508
v 1.000000 0.258928 0.258928
v 0.847743 0.626508 0.258928
v 0.648378 0.650063 0.650063
v 0.626508 0.847743 0.258928
v 0.258928 1.000000 0.258928
v 0.258928 0.847743 0.626508
v 0.650063 0.648378 0.650063
v 0.626508 0.258928 0.847743
v 0.650063 0.650063 0.648378
v 0.258928 0.626508 0.847743
v 0.258928 0.258928 1.000000
v 0.847743 -0.626508 0.258928
v 1.000000 -0.258928 0.258928
v 0.847743 -0.258928 0.626508
v 0.648378 -0.650063 0.650063
v 0.626508 -0.258928 0.847743
v 0.258928 -0.258928 1.000000
v 0.258928 -0.626508 0.847743
v 0.650063 -0.650063 0.648378
v 0.626508 -0.847743 0.258928
v 0.650063 -0.648378 0.650063
v 0.258928 -0.847743 0.626508
v 0.258928 -1.000000 0.258928
v -0.258928 0.626508 -0.847743
v -0.258928 0.258928 -1.000000
v -0.626508 0.258928 -0.847743
v -0.650063 0.650063 -0.648378
v -0.847743 0.258928 -0.626508
v -1.000000 0.258928 -0.258928
v -0.847743 0.626508 -0.258928
v -0.648378 0.650063 -0.650063
v -0.258928 0.847743 -0.626508
v -0.650063 0.648378 -0.650063
v -0.626508 0.847743 -0.258928
v -0.258928 1.000000 -0.258928
v -0.847743 -0.626508 -0.258928
v -1.000000 -0.258928 -0.258928
v -0.847743 -0.258928 -0.626508
v -0.648378 -0.650063 -0.650063
v -0.626508 -0.258928 -0.847743
v -0.258928 -0.258928 -1.000000
v -0.258928 -0.626508 -0.847743
v -0.650063 -0.650063 -0.648378
v -0.626508 -0.847743 -0.258928
v -0.650063 -0.648378 -0.650063
v -0.258928 -0.847743 -0.626508
v -0.258928 -1.000000 -0.258928
v -0.847743 0.626508 0.258928
v -1.000000 0.258928 0.258928
v -0.847743 0.258928 0.626508
v -0.648378 0.650063 0.650063
v -0.626508 0.258928 0.847743
v -0.258928 0.258928 1.000000
v -0.258928 0.626508 0.847743
v -0.650063 0.650063 0.648378
v -0.626508 0.847743 0.258928
v -0.650063 0.648378 0.650063
v -0.258928 0.847743 0.626508
v -0.258928 1.000000 0.258928
v -0.626508 -0.847743 0.258928
v -0.258928 -1.000000 0.258928
v -0.258928 -0.847743 0.626508
v -0.650063 -0.648378 0.650063
v -0.258928 -0.626508 0.847743
v -0.258928 -0.258928 1.000000
v -0.626508 -0.258928 0.847743
v -0.650063 -0.650063 0.648378
v -0.847743 -0.626508 0.258928
v -0.648378 -0.650063 0.650063
v -0.847743 -0.258928 0.626508
v -1.000000 -0.258928 0.258928
vn 0.7071 -0.0000 0.7071
vn -0.7071 -0.7071 -0.0000
vn 0.5774 -0.5774 0.5774
vn 1.0000 -0.0000 -0.0000
vn 0.7071 -0.7071 -0.0000
vn -0.0000 -0.0000 -1.0000
vn -0.0000 -0.7071 -0.7071
vn -0.0000 0.7071 0.7071
vn -0.0000 -0.7071 0.7071
vn -0.7071 -0.0000 -0.7071
vn -0.5774 0.5774 0.5774
vn -0.7071 -0.0000 0.7071
vn -0.5774 -0.5774 -0.5774
vn -0.0000 -1.0000 -0.0000
vn 0.5774 0.5774 -0.5774
vn -0.5774 -0.5774 0.5774
vn 0.5774 0.5774 0.5774
vn -0.7071 0.7071 -0.0000
vn -0.0000 -0.0000 1.0000
vn -0.0000 1.0000 -0.0000
vn -0.5774 0.5774 -0.5774
vn -1.0000 -0.0000 -0.0000
vn 0.7071 0.7071 -0.0000
vn 0.5774 -0.5774 -0.5774
vn -0.0000 0.7071 -0.7071
vn 0.3793 0.3793 -0.8439
vn 0.3793 0.8439 -0.3793
vn 0.8439 0.3793 -0.3793
vn 0.3793 -0.8439 -0.3793
vn 0.3793 -0.3793 -0.8439
vn 0.8439 -0.3793 -0.3793
vn 0.8439 0.3793 0.3793
vn 0.3793 0.8439 0.3793
vn 0.3793 0.3793 0.8439
vn 0.8439 -0.3793 0.3793
vn 0.3793 -0.3793 0.8439
vn 0.3793 -0.8439 0.3793
vn -0.3793 0.3793 -0.8439
vn -0.8439 0.3793 -0.3793
vn -0.3793 0.8439 -0.3793
vn -0.8439 -0.3793 -0.3793
vn -0.3793 -0.3793 -0.8439
vn -0.3793 -0.8439 -0.3793
vn -0.8439 0.3793 0.3793
vn -0.3793 0.3793 0.8439
vn -0.3793 0.8439 0.3793
vn -0.3793 -0.8439 0.3793
vn -0.3793 -0.3793 0.8439
vn -0.8439 -0.3793 0.3793
vn 0.6739 0.3029 -0.6739
vn 0.3029 0.6739 -0.6739
vn 0.6739 0.6739 -0.3029
vn 0.6739 -0.6739 -0.3029
vn 0.3029 -0.6739 -0.6739
vn 0.6739 -0.3029 -0.6739
vn 0.6739 0.3029 0.6739
vn 0.6739 0.6739 0.3029
vn 0.3029 0.6739 0.6739
vn 0.6739 -0.6739 0.3029
vn 0.6739 -0.3029 0.6739
vn 0.3029 -0.6739 0.6739
vn -0.3029 0.6739 -0.6739
vn -0.6739 0.3029 -0.6739
vn -0.6739 0.6739 -0.3029
vn -0.6739 -0.6739 -0.3029
vn -0.6739 -0.3029 -0.6739
vn -0.3029 -0.6739 -0.6739
vn -0.6739 0.6739 0.3029
vn -0.6739 0.3029 0.6739
vn -0.3029 0.6739 0.6739
vn -0.6739 -0.6739 0.3029
vn -0.3029 -0.6739 0.6739
vn -0.6739 -0.3029 0.6739
vn -0.3827 -0.9239 -0.0000
vn -0.9239 -0.3827 -0.0000
vn -0.0000 -0.9239 -0.3827
vn -0.0000 -0.3827 -0.9239
vn 0.9239 -0.0000 -0.3827
vn 0.3827 -0.0000 -0.9239
vn -0.3827 -0.0000 0.9239
vn -0.9239 -0.0000 0.3827
vn 0.3827 -0.0000 0.9239
vn 0.9239 -0.0000 0.3827
vn -0.3827 -0.0000 -0.9239
vn -0.9239 -0.0000 -0.3827
vn -0.0000 0.9239 0.3827
vn -0.0000 0.3827 0.9239
vn 0.3827 0.9239 -0.0000
vn 0.9239 0.3827 -0.0000
vn -0.0000 -0.9239 0.3827
vn -0.0000 -0.3827 0.9239
vn -0.3827 0.9239 -0.0000
vn -0.9239 0.3827 -0.0000
vn -0.0000 0.9239 -0.3827
vn -0.0000 0.3827 -0.9239
vn 0.3827 -0.9239 -0.0000
vn 0.9239 -0.3827 -0.0000
vn 0.7071 -0.0000 -0.7071
vt 0.532366 0.777654
vt 0.467634 0.777654
vt 0.467634 0.722346
vt 0.532366 0.722346
vt 0.171686 0.592634
vt 0.171686 0.657366
vt 0.144032 0.657366
vt 0.144032 0.592634
vt 0.331047 0.706258
vt 0.331258 0.706047
vt 0.331258 0.706258
vt 0.467634 0.592634
vt 0.532366 0.592634
vt 0.532366 0.657366
vt 0.467634 0.657366
vt 0.347346 0.657366
vt 0.347346 0.592634
vt 0.402654 0.592634
vt 0.402654 0.657366
vt 0.467634 0.342634
vt 0.532366 0.342634
vt 0.532366 0.407366
vt 0.467634 0.407366
vt 0.282366 0.546686
vt 0.217634 0.546686
vt 0.217634 0.519032
vt 0.282366 0.519032
vt 0.605968 0.842634
vt 0.605968 0.907366
vt 0.578314 0.907366
vt 0.578314 0.842634
vt 0.217634 0.703314
vt 0.282366 0.703314
vt 0.282366 0.730968
vt 0.217634 0.730968
vt 0.532366 0.277654
vt 0.467634 0.277654
vt 0.467634 0.222346
vt 0.532366 0.222346
vt 0.581258 0.043742
vt 0.581258 0.043953
vt 0.581047 0.043742
vt 0.467634 0.019032
vt 0.532366 0.019032
vt 0.532366 0.046686
vt 0.467634 0.046686
vt 0.168953 0.543742
vt 0.168742 0.543953
vt 0.168742 0.543742
vt 0.217634 0.592634
vt 0.282366 0.592634
vt 0.282366 0.657366
vt 0.217634 0.657366
vt 0.581258 0.456258
vt 0.581047 0.456258
vt 0.581258 0.456047
vt 0.168742 0.706258
vt 0.168742 0.706047
vt 0.168953 0.706258
vt 0.581258 0.793953
vt 0.581047 0.793742
vt 0.581258 0.793742
vt 0.605968 0.092634
vt 0.605968 0.157366
vt 0.578314 0.157366
vt 0.578314 0.092634
vt 0.467634 0.842634
vt 0.532366 0.842634
vt 0.532366 0.907366
vt 0.467634 0.907366
vt 0.717634 0.592634
vt 0.782366 0.592634
vt 0.782366 0.657366
vt 0.717634 0.657366
vt 0.581258 0.206047
vt 0.581258 0.206258
vt 0.581047 0.206258
vt 0.467634 0.092634
vt 0.532366 0.092634
vt 0.532366 0.157366
vt 0.467634 0.157366
vt 0.652654 0.592634
vt 0.652654 0.657366
vt 0.597346 0.657366
vt 0.597346 0.592634
vt 0.331258 0.543742
vt 0.331258 0.543953
vt 0.331047 0.543742
vt 0.605968 0.342634
vt 0.605968 0.407366
vt 0.578314 0.407366
vt 0.578314 0.342634
vt 0.532366 0.434281
vt 0.559281 0.407366
vt 0.559281 0.434281
vt 0.625000 0.407366
vt 0.625000 0.434281
vt 0.592035 0.434281
vt 0.532366 0.527654
vt 0.559281 0.499789
vt 0.559281 0.565719
vt 0.532366 0.565719
vt 0.309281 0.592634
vt 0.282366 0.565719
vt 0.309281 0.565719
vt 0.282366 0.500000
vt 0.309281 0.500000
vt 0.309281 0.532965
vt 0.374789 0.565719
vt 0.440719 0.565719
vt 0.440719 0.592634
vt 0.532366 0.684281
vt 0.559281 0.684281
vt 0.559281 0.750211
vt 0.625000 0.815719
vt 0.625000 0.842634
vt 0.592035 0.815719
vt 0.532366 0.815719
vt 0.559281 0.815719
vt 0.559281 0.842634
vt 0.355968 0.684281
vt 0.375000 0.684281
vt 0.355968 0.703314
vt 0.309281 0.750000
vt 0.282366 0.750000
vt 0.309281 0.717035
vt 0.309281 0.657366
vt 0.309281 0.684281
vt 0.282366 0.684281
vt 0.559281 0.315719
vt 0.532366 0.315719
vt 0.559281 0.249789
vt 0.532366 0.184281
vt 0.559281 0.157366
vt 0.559281 0.184281
vt 0.625000 0.184281
vt 0.592035 0.184281
vt 0.625000 0.157366
vt 0.125000 0.592634
vt 0.125000 0.565719
vt 0.157965 0.565719
vt 0.171686 0.519032
vt 0.190719 0.500000
vt 0.190719 0.519032
vt 0.532366 0.000000
vt 0.559281 0.000000
vt 0.559281 0.032965
vt 0.605968 0.065719
vt 0.605968 0.046686
vt 0.625000 0.065719
vt 0.190719 0.730968
vt 0.190719 0.750000
vt 0.171686 0.730968
vt 0.144032 0.684281
vt 0.144032 0.703314
vt 0.125000 0.684281
vt 0.532366 0.472346
vt 0.559281 0.500211
vt 0.625211 0.565719
vt 0.624789 0.565719
vt 0.375211 0.565719
vt 0.328314 0.519032
vt 0.355968 0.546686
vt 0.559281 0.749789
vt 0.578314 0.769032
vt 0.605968 0.796686
vt 0.328314 0.684281
vt 0.328314 0.730968
vt 0.605968 0.203314
vt 0.578314 0.230968
vt 0.559281 0.250211
vt 0.144032 0.546686
vt 0.578314 0.019032
vt 0.125000 0.657366
vt 0.217634 0.500000
vt 0.467634 0.527654
vt 0.467634 0.472346
vt 0.467634 0.000000
vt 0.625000 0.907366
vt 0.217634 0.750000
vt 0.625000 0.092634
vt 0.625000 0.342634
s 0
usemtl Material
f 33/1/1 41/2/1 39/3/1 25/4/1
f 69/5/2 85/6/2 93/7/2 61/8/2
f 40/9/3 44/10/3 46/11/3
f 24/12/4 12/13/4 26/14/4 38/15/4
f 45/16/5 13/17/5 21/18/5 37/19/5
f 66/20/6 50/21/6 2/22/6 18/23/6
f 15/24/7 71/25/7 67/26/7 17/27/7
f 31/28/8 83/29/8 79/30/8 35/31/8
f 87/32/9 47/33/9 43/34/9 89/35/9
f 51/36/10 65/37/10 63/38/10 53/39/10
f 76/40/11 80/41/11 82/42/11
f 91/43/12 77/44/12 75/45/12 95/46/12
f 64/47/13 68/48/13 70/49/13
f 72/50/14 14/51/14 48/52/14 86/53/14
f 4/54/15 8/55/15 10/56/15
f 88/57/16 92/58/16 94/59/16
f 28/60/17 32/61/17 34/62/17
f 81/63/18 59/64/18 55/65/18 73/66/18
f 42/67/19 36/68/19 78/69/19 90/70/19
f 6/71/20 60/72/20 84/73/20 30/74/20
f 52/75/21 56/76/21 58/77/21
f 96/78/22 74/79/22 54/80/22 62/81/22
f 7/82/23 29/83/23 27/84/23 11/85/23
f 16/86/24 20/87/24 22/88/24
f 57/89/25 5/90/25 3/91/25 49/92/25
f 1/93/26 2/22/26 3/94/26 4/95/26
f 5/90/27 6/96/27 7/97/27 8/98/27
f 9/99/28 10/100/28 11/101/28 12/102/28
f 13/103/29 14/51/29 15/104/29 16/105/29
f 17/27/30 18/106/30 19/107/30 20/108/30
f 21/18/31 22/109/31 23/110/31 24/111/31
f 25/4/32 26/112/32 27/113/32 28/114/32
f 29/115/33 30/116/33 31/28/33 32/117/33
f 33/118/34 34/119/34 35/120/34 36/68/34
f 37/121/35 38/122/35 39/123/35 40/9/35
f 41/124/36 42/125/36 43/34/36 44/126/36
f 45/127/37 46/128/37 47/129/37 48/52/37
f 49/130/38 50/131/38 51/36/38 52/132/38
f 53/133/39 54/80/39 55/134/39 56/135/39
f 57/136/40 58/137/40 59/64/40 60/138/40
f 61/8/41 62/139/41 63/140/41 64/141/41
f 65/142/42 66/143/42 67/144/42 68/48/42
f 69/5/43 70/49/43 71/25/43 72/50/43
f 73/66/44 74/79/44 75/45/44 76/40/44
f 77/44/45 78/145/45 79/146/45 80/147/45
f 81/148/46 82/42/46 83/149/46 84/150/46
f 85/6/47 86/53/47 87/32/47 88/57/47
f 89/151/48 90/152/48 91/153/48 92/58/48
f 93/154/49 94/59/49 95/155/49 96/156/49
f 9/99/50 1/157/50 4/158/50 10/100/50
f 3/91/51 5/90/51 8/55/51 4/54/51
f 7/82/52 11/85/52 10/159/52 8/160/52
f 21/18/53 13/17/53 16/161/53 22/109/53
f 15/24/54 17/27/54 20/87/54 16/86/54
f 19/162/55 23/163/55 22/88/55 20/87/55
f 33/1/56 25/4/56 28/114/56 34/164/56
f 27/165/57 29/166/57 32/61/57 28/60/57
f 31/28/58 35/31/58 34/62/58 32/61/58
f 45/167/59 37/121/59 40/9/59 46/11/59
f 39/123/60 41/168/60 44/10/60 40/9/60
f 43/34/61 47/33/61 46/11/61 44/10/61
f 57/169/62 49/170/62 52/75/62 58/77/62
f 51/36/63 53/39/63 56/171/63 52/132/63
f 55/65/64 59/64/64 58/77/64 56/76/64
f 69/5/65 61/8/65 64/47/65 70/49/65
f 63/172/66 65/142/66 68/48/66 64/47/66
f 67/26/67 71/25/67 70/49/67 68/48/67
f 81/63/68 73/66/68 76/40/68 82/42/68
f 75/45/69 77/44/69 80/41/69 76/40/69
f 79/173/70 83/149/70 82/42/70 80/41/70
f 93/7/71 85/6/71 88/57/71 94/59/71
f 87/32/72 89/35/72 92/58/72 88/57/72
f 91/153/73 95/155/73 94/59/73 92/58/73
f 72/50/74 86/53/74 85/6/74 69/5/74
f 96/174/75 62/139/75 61/8/75 93/7/75
f 14/51/76 72/50/76 71/25/76 15/24/76
f 66/175/77 18/106/77 17/27/77 67/26/77
f 12/13/78 24/12/78 23/176/78 9/99/78
f 18/23/79 2/22/79 1/157/79 19/177/79
f 90/178/80 78/145/80 77/44/80 91/43/80
f 74/79/81 96/78/81 95/46/81 75/45/81
f 36/68/82 42/67/82 41/2/82 33/1/82
f 38/15/83 26/14/83 25/4/83 39/3/83
f 50/21/84 66/20/84 65/37/84 51/36/84
f 62/81/85 54/80/85 53/39/85 63/38/85
f 30/116/86 84/179/86 83/29/86 31/28/86
f 78/69/87 36/68/87 35/31/87 79/30/87
f 6/71/88 30/74/88 29/83/88 7/82/88
f 26/14/89 12/13/89 11/85/89 27/84/89
f 86/53/90 48/52/90 47/33/90 87/32/90
f 42/125/91 90/180/91 89/35/91 43/34/91
f 84/181/92 60/138/92 59/64/92 81/63/92
f 54/80/93 74/79/93 73/66/93 55/65/93
f 60/182/94 6/96/94 5/90/94 57/89/94
f 2/22/95 50/21/95 49/92/95 3/91/95
f 48/52/96 14/51/96 13/17/96 45/16/96
f 24/12/97 38/15/97 37/19/97 21/18/97
f 9/99/98 23/176/98 19/177/98 1/157/98
