# Blender 3.6.5
# www.blender.org
mtllib Cristal1.mtl
o Cube
v 0.107729 0.107729 1.000000
v 0.107729 -1.000000 -0.107729
v -1.000000 0.107729 -0.107729
v 0.107729 1.000000 -0.107729
v 0.107729 -0.107729 1.000000
v -1.000000 -0.107729 -0.107729
v -1.000000 0.107729 0.107729
v 0.107729 -1.000000 0.107729
v 0.107729 0.107729 -1.000000
v -1.000000 -0.107729 0.107729
v 0.107729 -0.107729 -1.000000
v 0.107729 1.000000 0.107729
v -0.107729 0.107729 1.000000
v 1.000000 0.107729 -0.107729
v -0.107729 -1.000000 -0.107729
v 1.000000 -0.107729 -0.107729
v -0.107729 -0.107729 1.000000
v -0.107729 1.000000 -0.107729
v 1.000000 0.107729 0.107729
v -0.107729 0.107729 -1.000000
v -0.107729 -1.000000 0.107729
v -0.107729 1.000000 0.107729
v -0.107729 -0.107729 -1.000000
v 1.000000 -0.107729 0.107729
vn -0.0000 1.0000 -0.0000
vn 1.0000 -0.0000 -0.0000
vn -0.0000 -0.0000 -1.0000
vn -0.0000 -1.0000 -0.0000
vn -1.0000 -0.0000 -0.0000
vn -0.5774 -0.5774 0.5774
vn -0.5774 0.5774 0.5774
vn -0.5774 -0.5774 -0.5774
vn -0.5774 0.5774 -0.5774
vn 0.5774 -0.5774 0.5774
vn 0.5774 0.5774 0.5774
vn 0.5774 -0.5774 -0.5774
vn 0.5774 0.5774 -0.5774
vn -0.7071 -0.7071 -0.0000
vn -0.0000 -0.7071 -0.7071
vn 0.7071 -0.0000 -0.7071
vn -0.7071 -0.0000 0.7071
vn 0.7071 -0.0000 0.7071
vn -0.7071 -0.0000 -0.7071
vn -0.0000 0.7071 0.7071
vn 0.7071 0.7071 -0.0000
vn -0.0000 -0.7071 0.7071
vn -0.7071 0.7071 -0.0000
vn -0.0000 0.7071 -0.7071
vn 0.7071 -0.7071 -0.0000
vn -0.0000 -0.0000 1.0000
vt 0.263466 0.638466
vt 0.236534 0.638466
vt 0.236534 0.611534
vt 0.263466 0.611534
vt 0.513466 0.138466
vt 0.486534 0.138466
vt 0.486534 0.111534
vt 0.513466 0.111534
vt 0.513466 0.888466
vt 0.486534 0.888466
vt 0.486534 0.861534
vt 0.513466 0.861534
vt 0.763466 0.638466
vt 0.736534 0.638466
vt 0.736534 0.611534
vt 0.763466 0.611534
vt 0.513466 0.638466
vt 0.486534 0.638466
vt 0.486534 0.611534
vt 0.513466 0.611534
vt 0.486534 0.361534
vt 0.625000 0.361534
vt 0.486534 0.500000
vt 0.236534 0.500000
vt 0.375000 0.638466
vt 0.486534 0.750000
vt 0.625000 0.888466
vt 0.375000 0.611534
vt 0.236534 0.750000
vt 0.486534 0.250000
vt 0.625000 0.111534
vt 0.125000 0.638466
vt 0.263466 0.500000
vt 0.486534 0.000000
vt 0.625000 0.138466
vt 0.263466 0.750000
vt 0.125000 0.611534
vt 0.513466 0.361534
vt 0.513466 0.000000
vt 0.486534 0.388466
vt 0.513466 0.388466
vt 0.625000 0.861534
vt 0.625000 0.388466
s 0
usemtl Material
f 18/1/1 22/4/1 12/3/1 4/2/1
f 24/5/2 16/8/2 14/7/2 19/6/2
f 11/9/3 23/12/3 20/11/3 9/10/3
f 2/13/4 8/16/4 21/15/4 15/14/4
f 6/17/5 10/20/5 7/19/5 3/18/5
f 1/21/6 3/23/6 2/22/6
f 4/2/7 6/25/7 5/24/7
f 7/26/8 9/10/8 8/27/8
f 10/28/9 12/3/9 11/29/9
f 13/30/10 15/31/10 14/7/10
f 16/32/11 18/1/11 17/33/11
f 19/6/12 21/35/12 20/34/12
f 22/4/13 24/37/13 23/36/13
f 18/1/14 16/32/14 24/37/14 22/4/14
f 4/2/15 5/24/15 17/33/15 18/1/15
f 3/18/16 1/21/16 5/38/16 6/17/16
f 23/39/17 24/5/17 19/6/17 20/34/17
f 9/10/18 7/19/18 10/20/18 11/9/18
f 13/40/19 14/7/19 16/8/19 17/41/19
f 8/27/20 9/10/20 20/11/20 21/42/20
f 2/13/21 3/18/21 7/19/21 8/16/21
f 22/4/22 23/36/22 11/29/22 12/3/22
f 21/35/23 19/6/23 14/7/23 15/31/23
f 15/43/24 13/40/24 1/21/24 2/22/24
f 12/3/25 10/20/25 6/17/25 4/2/25
f 17/41/26 5/38/26 1/21/26 13/40/26
