# Blender 3.6.5
# www.blender.org
mtllib Stick.mtl
o Cube
v 0.284263 4.995255 -0.229166
v 0.759323 1.812239 -0.587739
v 0.443388 5.128949 0.607243
v 0.461019 0.509600 0.145314
v -0.554405 4.863628 -0.409813
v 0.114863 1.480565 -0.254194
v -0.421792 4.981661 0.466360
v -0.163494 -0.641400 -0.103588
v 0.622613 3.986342 -0.565416
v -0.510110 3.368401 0.454131
v 0.605498 3.707857 0.556690
v -0.480306 3.862158 -0.548873
v 0.534746 -2.181401 -0.470402
v 0.422882 -2.669891 0.304493
v -0.206927 -2.305779 -0.345323
v -0.311310 -3.101516 0.211155
v -0.143282 0.280582 -0.170955
v 0.491155 1.967458 -0.503809
v 0.724861 3.219558 -0.599747
v -0.542482 4.523976 0.564977
v 0.517638 2.289183 0.294490
v -0.106070 2.976009 -0.368367
v 0.029726 5.149567 0.631187
v 0.445033 5.158551 0.222839
v 0.094701 -0.386956 0.103706
v -0.578383 4.974222 0.010347
v -0.163077 4.983206 -0.398001
v 0.729137 1.299920 -0.229147
v 0.459300 4.612752 -0.413725
v -0.301166 1.455438 0.110550
v 0.600551 4.696321 0.684732
v -0.642870 4.490517 -0.577501
v 0.075552 3.996648 -0.756373
v 0.822042 3.890566 0.003701
v -0.703195 3.571814 -0.055435
v 0.043295 3.465732 0.704639
v -0.390938 -2.976224 -0.050534
v 0.140589 -2.509776 -0.498669
v 0.030964 -3.160807 0.381509
v 0.562491 -2.694360 -0.066625
v -0.062770 -0.707095 -0.332843
v -0.267853 -2.273429 0.069976
v 0.485936 -1.422676 0.255182
v 0.705840 -0.465148 -0.580429
v -0.076200 5.221709 0.133249
v 0.052939 4.629883 0.834726
v -0.802562 4.485302 -0.033933
v -0.316658 -1.613473 -0.124302
v 0.738916 4.691075 0.164739
v -0.116585 4.546494 -0.703920
v 0.347113 3.327559 -0.612791
v 0.775912 2.855367 -0.157076
v -0.358281 2.114727 -0.124461
v 0.070519 1.642534 0.331253
v 0.035260 -3.403266 -0.024080
v 0.742488 -0.874067 -0.166513
v 0.356705 -0.389848 -0.578903
v 0.069125 -2.097691 0.288088
vn 0.1561 0.9000 -0.4071
vn -0.3216 0.8956 -0.3074
vn -0.4380 0.8807 0.1803
vn 0.0815 0.9912 0.1047
vn 0.2872 -0.1147 0.9510
vn 0.1553 0.3065 0.9391
vn -0.4321 0.3054 0.8485
vn -0.3960 -0.0987 0.9129
vn -0.9267 -0.0825 0.3666
vn -0.8798 0.3396 0.3326
vn -0.9005 0.3790 -0.2131
vn -0.9113 -0.1566 -0.3808
vn -0.7247 0.0997 0.6818
vn -0.6803 0.0642 -0.7301
vn -0.8247 0.0492 -0.5634
vn -0.9082 0.0889 0.4090
vn 0.8979 0.2364 -0.3712
vn 0.7298 0.5270 -0.4355
vn 0.8828 0.4456 0.1487
vn 0.9496 -0.0039 0.3135
vn -0.2836 -0.0660 -0.9567
vn -0.2011 0.5023 -0.8410
vn 0.3069 0.5486 -0.7777
vn 0.3684 0.2659 -0.8908
vn -0.4129 -0.1233 -0.9024
vn -0.2652 -0.3010 -0.9160
vn 0.2131 -0.0189 -0.9769
vn -0.1297 -0.0517 -0.9902
vn 0.9995 -0.0035 -0.0299
vn 0.9747 0.0538 -0.2168
vn 0.9281 -0.1119 0.3552
vn 0.8825 -0.0583 0.4666
vn -0.9660 -0.0702 -0.2490
vn -0.9765 -0.1757 0.1245
vn -0.6194 -0.2259 -0.7519
vn -0.3427 -0.0639 -0.9373
vn 0.1807 -0.0983 0.9786
vn 0.3340 -0.1874 0.9238
vn -0.3962 -0.1971 0.8968
vn -0.5039 -0.1115 0.8565
vn -0.4148 -0.3387 -0.8445
vn 0.5210 -0.4726 -0.7107
vn 0.7646 -0.5527 0.3316
vn -0.5603 -0.8027 0.2042
vn 0.9998 -0.0093 -0.0195
vn 0.8088 0.0322 0.5872
vn 0.9065 -0.0515 0.4190
vn 0.9740 -0.1085 -0.1990
vn -0.5755 0.0671 -0.8151
vn -0.1299 0.0198 -0.9913
vn 0.0546 -0.0550 -0.9970
vn -0.4650 0.0289 -0.8848
vn -0.1702 0.0794 0.9822
vn -0.6282 0.1069 0.7707
vn -0.5088 0.1276 0.8514
vn 0.0499 0.0594 0.9970
vt 0.625000 0.500000
vt 0.750000 0.500000
vt 0.751736 0.625000
vt 0.642361 0.625000
vt 0.875000 0.500000
vt 0.875000 0.625000
vt 0.875000 0.750000
vt 0.750000 0.750000
vt 0.625000 0.750000
vt 0.500000 0.750000
vt 0.562934 0.750000
vt 0.562500 0.875000
vt 0.500000 0.875000
vt 0.625000 0.875000
vt 0.625000 1.000000
vt 0.562500 1.000000
vt 0.500000 1.000000
vt 0.500000 0.000000
vt 0.562500 0.000000
vt 0.562500 0.125000
vt 0.500000 0.125000
vt 0.625000 0.000000
vt 0.625000 0.125000
vt 0.625000 0.250000
vt 0.562500 0.250000
vt 0.500000 0.250000
vt 0.375000 0.000000
vt 0.394097 0.125000
vt 0.377170 0.125000
vt 0.375000 0.000000
vt 0.395833 0.250000
vt 0.377604 0.250000
vt 0.375000 0.250000
vt 0.375000 0.125000
vt 0.375000 0.000000
vt 0.500000 0.500000
vt 0.562934 0.500000
vt 0.564236 0.625000
vt 0.500000 0.625000
vt 0.562500 0.375000
vt 0.500000 0.375000
vt 0.625000 0.375000
vt 0.395833 0.250000
vt 0.440104 0.250000
vt 0.440104 0.375000
vt 0.395833 0.375000
vt 0.500000 0.250000
vt 0.500000 0.375000
vt 0.500000 0.500000
vt 0.440104 0.500000
vt 0.395833 0.500000
vt 0.440104 0.625000
vt 0.395833 0.625000
vt 0.500000 0.625000
vt 0.500000 0.750000
vt 0.440104 0.750000
vt 0.395833 0.750000
vt 0.437500 0.000000
vt 0.439670 0.125000
vt 0.394097 0.125000
vt 0.440104 0.250000
vt 0.395833 0.750000
vt 0.440104 0.750000
vt 0.439670 0.875000
vt 0.394097 0.875000
vt 0.437500 1.000000
vt 0.375000 1.000000
vt 0.125000 0.500000
vt 0.250000 0.500000
vt 0.246528 0.625000
vt 0.125000 0.625000
vt 0.375000 0.500000
vt 0.340278 0.625000
vt 0.375000 0.750000
vt 0.250000 0.750000
vt 0.125000 0.750000
vt 0.395833 0.500000
vt 0.395833 0.625000
vt 0.374132 0.625000
vt 0.376736 0.500000
vt 0.376736 0.750000
vt 0.395833 0.375000
vt 0.377604 0.375000
vt 0.375000 0.375000
vt 0.377170 0.875000
vt 0.375000 1.000000
vt 0.375000 1.000000
vt 0.375000 0.875000
s 0
usemtl Material
f 1/1/1 27/2/1 45/3/1 24/4/1
f 27/2/2 5/5/2 26/6/2 45/3/2
f 45/3/3 26/6/3 7/7/3 23/8/3
f 24/4/4 45/3/4 23/8/4 3/9/4
f 11/10/5 31/11/5 46/12/5 36/13/5
f 31/11/6 3/9/6 23/14/6 46/12/6
f 46/12/7 23/14/7 7/15/7 20/16/7
f 36/13/8 46/12/8 20/16/8 10/17/8
f 10/18/9 20/19/9 47/20/9 35/21/9
f 20/19/10 7/22/10 26/23/10 47/20/10
f 47/20/11 26/23/11 5/24/11 32/25/11
f 35/21/12 47/20/12 32/25/12 12/26/12
f 8/27/13 17/28/13 48/29/13 42/30/13
f 17/28/14 6/31/14 41/32/14 48/29/14
f 48/29/15 41/32/15 15/33/15 37/34/15
f 42/30/16 48/29/16 37/34/16 16/35/16
f 9/36/17 29/37/17 49/38/17 34/39/17
f 29/37/18 1/1/18 24/4/18 49/38/18
f 49/38/19 24/4/19 3/9/19 31/11/19
f 34/39/20 49/38/20 31/11/20 11/10/20
f 12/26/21 32/25/21 50/40/21 33/41/21
f 32/25/22 5/24/22 27/42/22 50/40/22
f 50/40/23 27/42/23 1/1/23 29/37/23
f 33/41/24 50/40/24 29/37/24 9/36/24
f 6/43/25 22/44/25 51/45/25 18/46/25
f 22/44/26 12/47/26 33/48/26 51/45/26
f 51/45/27 33/48/27 9/49/27 19/50/27
f 18/46/28 51/45/28 19/50/28 2/51/28
f 2/51/29 19/50/29 52/52/29 28/53/29
f 19/50/30 9/49/30 34/54/30 52/52/30
f 52/52/31 34/54/31 11/55/31 21/56/31
f 28/53/32 52/52/32 21/56/32 4/57/32
f 8/27/33 30/58/33 53/59/33 17/60/33
f 30/58/34 10/18/34 35/21/34 53/59/34
f 53/59/35 35/21/35 12/26/35 22/61/35
f 17/60/36 53/59/36 22/61/36 6/31/36
f 4/62/37 21/63/37 54/64/37 25/65/37
f 21/63/38 11/10/38 36/13/38 54/64/38
f 54/64/39 36/13/39 10/17/39 30/66/39
f 25/65/40 54/64/40 30/66/40 8/67/40
f 15/68/41 38/69/41 55/70/41 37/71/41
f 38/69/42 13/72/42 40/73/42 55/70/42
f 55/70/43 40/73/43 14/74/43 39/75/43
f 37/71/44 55/70/44 39/75/44 16/76/44
f 2/77/45 28/78/45 56/79/45 44/80/45
f 28/78/46 4/62/46 43/81/46 56/79/46
f 56/79/47 43/81/47 14/74/47 40/73/47
f 44/80/48 56/79/48 40/73/48 13/72/48
f 6/31/49 18/82/49 57/83/49 41/32/49
f 18/82/50 2/77/50 44/80/50 57/83/50
f 57/83/51 44/80/51 13/72/51 38/84/51
f 41/32/52 57/83/52 38/84/52 15/33/52
f 4/62/53 25/65/53 58/85/53 43/81/53
f 25/65/54 8/67/54 42/86/54 58/85/54
f 58/85/55 42/86/55 16/87/55 39/88/55
f 43/81/56 58/85/56 39/88/56 14/74/56
