# Blender 3.6.5
# www.blender.org
mtllib Obelisk.mtl
o Cube
v 1.000000 2.211204 -1.000000
v 1.000000 0.211204 -1.000000
v 1.000000 2.211204 1.000000
v 1.000000 0.211204 1.000000
v -1.000000 2.211204 -1.000000
v -1.000000 0.211204 -1.000000
v -1.000000 2.211204 1.000000
v -1.000000 0.211204 1.000000
v 0.690926 1.211204 -0.690926
v -0.690926 1.211204 0.690926
v 0.690926 1.211204 0.690926
v -0.690926 1.211204 -0.690926
v 0.690926 0.711204 -0.690926
v 0.690926 0.711204 0.690926
v -0.690926 0.711204 -0.690926
v -0.690926 0.711204 0.690926
v -0.690926 1.711204 0.690926
v 0.690926 1.711204 -0.690926
v 0.690926 1.711204 0.690926
v -0.690926 1.711204 -0.690926
v -0.853267 0.333421 0.864312
v -0.892336 1.331162 0.903381
v -0.853267 0.333498 -0.863324
v -0.892336 1.331239 -0.902394
v 0.803920 0.336273 0.864312
v 0.842990 1.334014 0.903382
v 0.803920 0.336350 -0.863324
v 0.842990 1.334091 -0.902393
v -0.834867 0.364565 0.866959
v -0.874533 2.066813 0.906029
v -0.834867 0.364565 -0.867930
v -0.874533 2.066813 -0.906999
v 0.829680 0.365834 0.866959
v 0.868153 2.068082 0.906029
v 0.829680 0.365834 -0.867930
v 0.868153 2.068082 -0.906999
v -0.500444 2.211205 0.489005
v -0.500444 2.211205 -0.500723
v 0.322021 2.211205 0.489005
v 0.322021 2.211205 -0.500723
v -0.080759 6.152554 0.069320
v -0.500444 5.732868 0.489005
v -0.080759 6.152554 -0.081038
v -0.500444 5.732868 -0.500723
v -0.097665 6.152554 0.069320
v 0.322021 5.732868 0.489005
v -0.097665 6.152554 -0.081038
v 0.322021 5.732868 -0.500723
vn -0.0000 1.0000 -0.0000
vn -0.0000 -0.5258 0.8506
vn -0.8506 -0.5258 -0.0000
vn -0.0000 -1.0000 -0.0000
vn 0.8506 -0.5258 -0.0000
vn -0.0000 -0.5258 -0.8506
vn -0.0000 -0.0000 -1.0000
vn 1.0000 -0.0000 -0.0000
vn -1.0000 -0.0000 -0.0000
vn -0.0000 -0.0000 1.0000
vn -0.0000 0.5258 0.8506
vn -0.8506 0.5258 -0.0000
vn 0.8506 0.5258 -0.0000
vn -0.0000 0.5258 -0.8506
vn -0.0017 1.0000 -0.0000
vn 0.0016 -1.0000 -0.0000
vn -0.9997 -0.0233 -0.0000
vn -0.0000 -0.0229 -0.9997
vn 0.9997 -0.0226 -0.0000
vn -0.0000 -0.0229 0.9997
vn 0.0008 -1.0000 -0.0000
vn -0.0007 1.0000 -0.0000
vn -0.7071 0.7071 -0.0000
vn -0.0000 0.7071 -0.7071
vn 0.7071 0.7071 -0.0000
vn -0.0000 0.7071 0.7071
vt 0.202293 0.562770
vt 0.017872 0.562770
vt 0.017872 0.378350
vt 0.202293 0.378350
vt 0.504321 0.534271
vt 0.458202 0.562770
vt 0.458202 0.378350
vt 0.504321 0.406850
vt 0.541175 0.173793
vt 0.495056 0.202293
vt 0.495056 0.017872
vt 0.541175 0.046372
vt 0.422457 0.562770
vt 0.238037 0.562770
vt 0.238037 0.378350
vt 0.422457 0.378350
vt 0.063991 0.754435
vt 0.017872 0.782935
vt 0.017872 0.598515
vt 0.063991 0.627015
vt 0.284156 0.754435
vt 0.238037 0.782935
vt 0.238037 0.598515
vt 0.284156 0.627015
vt 0.376367 0.754435
vt 0.330261 0.754435
vt 0.330261 0.627015
vt 0.376367 0.627015
vt 0.156202 0.754435
vt 0.110097 0.754435
vt 0.110097 0.627015
vt 0.156202 0.627015
vt 0.633385 0.173793
vt 0.587280 0.173793
vt 0.587280 0.046372
vt 0.633385 0.046372
vt 0.596531 0.534271
vt 0.550426 0.534271
vt 0.550426 0.406850
vt 0.596531 0.406850
vt 0.642622 0.562770
vt 0.642622 0.378350
vt 0.679476 0.202293
vt 0.679476 0.017872
vt 0.202293 0.782935
vt 0.202293 0.598515
vt 0.422457 0.782935
vt 0.422457 0.598515
vt 0.715220 0.185052
vt 0.715220 0.017872
vt 0.878668 0.017872
vt 0.878668 0.185052
vt 0.458202 0.772900
vt 0.458202 0.598515
vt 0.628855 0.598515
vt 0.628855 0.772900
vt 0.962358 0.962186
vt 0.877560 0.965788
vt 0.877559 0.798609
vt 0.962358 0.802211
vt 0.294658 0.978525
vt 0.209860 0.982128
vt 0.209860 0.818680
vt 0.294658 0.822282
vt 0.543000 0.972221
vt 0.458202 0.975824
vt 0.458202 0.808644
vt 0.543000 0.812247
vt 0.415201 0.978525
vt 0.330403 0.982128
vt 0.330403 0.818680
vt 0.415201 0.822282
vt 0.174115 0.978654
vt 0.017872 0.978654
vt 0.017872 0.818680
vt 0.174115 0.818680
vt 0.841815 0.965788
vt 0.678367 0.965788
vt 0.678367 0.798609
vt 0.841815 0.798609
vt 0.719783 0.251902
vt 0.718224 0.251902
vt 0.718224 0.238037
vt 0.719783 0.238037
vt 0.017872 0.342605
vt 0.017872 0.017872
vt 0.109135 0.017872
vt 0.109135 0.342605
vt 0.144880 0.342605
vt 0.144880 0.017872
vt 0.236143 0.017872
vt 0.236143 0.342605
vt 0.570895 0.329300
vt 0.495056 0.329300
vt 0.495056 0.238037
vt 0.570895 0.238037
vt 0.271887 0.342605
vt 0.271887 0.017872
vt 0.347727 0.017872
vt 0.347727 0.342605
vt 0.645339 0.276736
vt 0.645339 0.290601
vt 0.606640 0.329300
vt 0.606640 0.238037
vt 0.643780 0.290601
vt 0.682479 0.329300
vt 0.643780 0.276736
vt 0.682479 0.238037
vt 0.383472 0.342605
vt 0.383472 0.017872
vt 0.459311 0.017872
vt 0.459311 0.342605
s 0
usemtl Material
f 1/1/1 5/2/1 7/3/1 3/4/1
f 19/5/2 3/6/2 7/7/2 17/8/2
f 17/9/3 7/10/3 5/11/3 20/12/3
f 6/13/4 2/14/4 4/15/4 8/16/4
f 18/17/5 1/18/5 3/19/5 19/20/5
f 20/21/6 5/22/6 1/23/6 18/24/6
f 15/25/7 12/26/7 9/27/7 13/28/7
f 13/29/8 9/30/8 11/31/8 14/32/8
f 16/33/9 10/34/9 12/35/9 15/36/9
f 14/37/10 11/38/10 10/39/10 16/40/10
f 4/41/11 14/37/11 16/40/11 8/42/11
f 8/43/12 16/33/12 15/36/12 6/44/12
f 2/45/13 13/29/13 14/32/13 4/46/13
f 6/47/14 15/25/14 13/28/14 2/48/14
f 12/26/7 20/21/7 18/24/7 9/27/7
f 9/30/8 18/17/8 19/20/8 11/31/8
f 10/34/9 17/9/9 20/12/9 12/35/9
f 11/38/10 19/5/10 17/8/10 10/39/10
f 23/49/15 21/50/15 25/51/15 27/52/15
f 28/53/16 26/54/16 22/55/16 24/56/16
f 29/57/17 30/58/17 32/59/17 31/60/17
f 31/61/18 32/62/18 36/63/18 35/64/18
f 35/65/19 36/66/19 34/67/19 33/68/19
f 33/69/20 34/70/20 30/71/20 29/72/20
f 31/73/21 35/74/21 33/75/21 29/76/21
f 36/77/22 32/78/22 30/79/22 34/80/22
f 47/81/4 43/82/4 41/83/4 45/84/4
f 40/85/8 48/86/8 46/87/8 39/88/8
f 37/89/9 42/90/9 44/91/9 38/92/9
f 38/93/4 40/94/4 39/95/4 37/96/4
f 38/97/7 44/98/7 48/99/7 40/100/7
f 41/101/23 43/102/23 44/103/23 42/104/23
f 43/102/24 47/105/24 48/106/24 44/103/24
f 47/105/25 45/107/25 46/108/25 48/106/25
f 45/107/26 41/101/26 42/104/26 46/108/26
f 39/109/10 46/110/10 42/111/10 37/112/10
